# xmcd CD database file
#
# Track frame offsets:
#	150
#	18092
#	44212
#	68962
#	88669
#	114193
#	147584
#	166018
#	193192
#	212587
#	240357
#
# Disc length: 3479 seconds
#
# Revision: 4
# Processed by: cddbd v1.5.2PL0 Copyright (c) Steve Scherf et al.
# Submitted via: CDex 1.70beta2
#
DISCID=940d950b
DTITLE=Robben Ford - supernatural
DYEAR=1999
DGENRE=Blues
TTITLE0=Let Me In
TTITLE1=Supernatural
TTITLE2=Nothing to Nobody
TTITLE3=Water for the Wicked
TTITLE4=Don't Lose Your Faith in Me
TTITLE5=Hey, Brother
TTITLE6=Deaf, Dumb and Blind  (for O.T.)
TTITLE7=If
TTITLE8=When I Cry Today
TTITLE9=You got Me Knockin'
TTITLE10=Lovin' Cup
EXTD=YEAR: 1999
EXTT0=
EXTT1=
EXTT2=
EXTT3=
EXTT4=
EXTT5=
EXTT6=
EXTT7=
EXTT8=
EXTT9=
EXTT10=
PLAYORDER=
